<svg xmlns="http://www.w3.org/2000/svg" width="1200" height="330" viewBox="0 0 1200 330" role="img" aria-label="Portafolio técnico de Hans Renato Condori Llacta"><defs><linearGradient id="g" x2="1" y2="1"><stop stop-color="#0b1728"/><stop offset="1" stop-color="#123c55"/></linearGradient><pattern id="p" width="40" height="40" patternUnits="userSpaceOnUse"><path d="M 40 0 L 0 0 0 40" fill="none" stroke="#6bc1c9" stroke-opacity=".12"/></pattern></defs><rect width="1200" height="330" rx="18" fill="url(#g)"/><rect width="1200" height="330" rx="18" fill="url(#p)"/><path d="M 720 330 Q 830 210 920 290 T 1200 170" fill="none" stroke="#29b8b0" stroke-opacity=".5" stroke-width="3"/><path d="M 700 330 Q 830 170 960 240 T 1200 110" fill="none" stroke="#7dd3fc" stroke-opacity=".3" stroke-width="2"/><path d="M 720 330 Q 850 250 1030 310 T 1200 220" fill="none" stroke="#7dd3fc" stroke-opacity=".35" stroke-width="2"/><rect x="55" y="47" width="206" height="31" rx="15" fill="#1c5663"/><text x="72" y="68" fill="#b6f6ed" font-family="Arial, sans-serif" font-size="14" font-weight="bold" letter-spacing="1.3">PORTAFOLIO TÉCNICO</text><text x="55" y="139" fill="#ffffff" font-family="Arial, sans-serif" font-size="41" font-weight="bold">Hans Renato Condori Llacta</text><text x="56" y="182" fill="#b4d6e5" font-family="Arial, sans-serif" font-size="25">Ingeniería geotécnica · Modelamiento numérico</text><rect x="55" y="216" width="490" height="2" fill="#2a999e"/><text x="56" y="254" fill="#edf7fa" font-family="Arial, sans-serif" font-size="18">Mecánica de suelos  /  Obras subterráneas</text><text x="56" y="284" fill="#edf7fa" font-family="Arial, sans-serif" font-size="18">Modelos constitutivos  /  PLAXIS 2D + Python</text></svg>